<?xml version="1.0" encoding="utf-8"?>
<!-- Generator: Adobe Illustrator 24.0.0, SVG Export Plug-In . SVG Version: 6.00 Build 0)  -->
<svg version="1.1" id="Layer_1" xmlns="http://www.w3.org/2000/svg" xmlns:xlink="http://www.w3.org/1999/xlink" x="0px" y="0px"
	 viewBox="0 0 882 92" style="enable-background:new 0 0 882 92;" xml:space="preserve">
<style type="text/css">
	.st0{fill:#FFFFFF;}
</style>
<g>
	<g>
		<path class="st0" d="M4.9,4.7h18.7v84.8H4.9V4.7z"/>
		<path class="st0" d="M32.1,24.6h18.4v9.2c4.2-5.5,9.7-10.4,19-10.4c13.9,0,22.1,9.2,22.1,24.1v42H73.2V53.3
			c0-8.7-4.1-13.2-11.1-13.2c-7,0-11.5,4.5-11.5,13.2v36.2H32.1V24.6z"/>
		<path class="st0" d="M102.8,71.1V40.3H95V24.6h7.8V8h18.4v16.6h15.3v15.8h-15.3v27.7c0,4.2,1.8,6.3,5.9,6.3c3.4,0,6.4-0.8,9.1-2.3
			v14.8c-3.9,2.3-8.4,3.8-14.5,3.8C110.4,90.6,102.8,86.1,102.8,71.1z"/>
		<path class="st0" d="M139.6,57.4v-0.2c0-18.5,13.2-33.8,32.1-33.8c21.7,0,31.6,16.8,31.6,35.3c0,1.5-0.1,3.2-0.2,4.8h-45.2
			c1.8,8.4,7.6,12.7,15.9,12.7c6.2,0,10.7-1.9,15.8-6.7l10.5,9.3C194,86.4,185.3,91,173.5,91C154,91,139.6,77.3,139.6,57.4z
			 M185.4,51.9c-1.1-8.2-5.9-13.8-13.7-13.8c-7.6,0-12.6,5.5-14.1,13.8H185.4z"/>
		<path class="st0" d="M208.5,1h18.4v88.5h-18.4V1z"/>
		<path class="st0" d="M234.7,1h18.4v88.5h-18.4V1z"/>
		<path class="st0" d="M260.5,1h19.4v16.4h-19.4V1z M260.9,24.6h18.4v65h-18.4V24.6z"/>
		<path class="st0" d="M283.2,78l11.8-13.1c4.8,5.3,9.6,8.5,15.5,8.5c7,0,11.4-4.2,11.4-14.1V4.7H341v55.5c0,10.1-2.9,17.6-8,22.7
			c-5.2,5.2-12.8,7.9-22.1,7.9C297.7,90.7,289,84.9,283.2,78z"/>
		<path class="st0" d="M372.9,4.7h18.7v84.8h-18.7V4.7z"/>
		<path class="st0" d="M400.3,4.7h33.1c26.7,0,45.1,18.3,45.1,42.2v0.2c0,23.9-18.4,42.4-45.1,42.4h-33.1V4.7z M419,21.5v51.1h14.4
			c15.3,0,25.6-10.3,25.6-25.3v-0.2c0-15-10.3-25.6-25.6-25.6H419z"/>
		<path class="st0" d="M484.7,4.7h64v16.6h-45.4v17.2h40v16.6h-40v17.8h46v16.6h-64.6V4.7z"/>
		<path class="st0" d="M590.3,4.1h17.2l36.4,85.4h-19.5l-7.8-19h-35.9l-7.8,19h-19L590.3,4.1z M609.9,54l-11.3-27.5L587.4,54H609.9z
			"/>
	</g>
	<g>
		<path class="st0" d="M674.1,5.2h62.7v16.5h-44.5v17.1h39.2v16.5h-39.2V73h45.1v16.5h-63.3V5.2z"/>
		<path class="st0" d="M742.8,57.3v-0.2c0-21.5,13.9-33.3,29-33.3c9.6,0,15.6,4.5,19.8,9.6V1.6h18.1v87.8h-18.1v-9.3
			c-4.4,6-10.5,10.5-19.8,10.5C756.9,90.6,742.8,78.9,742.8,57.3z M791.8,57.3v-0.2c0-10.7-7-17.8-15.4-17.8
			c-8.4,0-15.6,7-15.6,17.8v0.2c0,10.7,7.1,17.8,15.6,17.8C784.8,75.1,791.8,68,791.8,57.3z"/>
		<path class="st0" d="M818.8,66.7V25h18.1v36c0,8.7,4,13.1,10.9,13.1c6.9,0,11.3-4.4,11.3-13.1V25h18.1v64.5H859v-9.1
			c-4.2,5.4-9.5,10.3-18.6,10.3C826.7,90.6,818.8,81.5,818.8,66.7z"/>
	</g>
</g>
</svg>
