<?xml version="1.0" encoding="utf-8"?>
<!-- Generator: Adobe Illustrator 23.1.1, SVG Export Plug-In . SVG Version: 6.00 Build 0)  -->
<svg version="1.1" id="Layer_1" xmlns="http://www.w3.org/2000/svg" xmlns:xlink="http://www.w3.org/1999/xlink" x="0px" y="0px"
	 viewBox="0 0 600 300" style="enable-background:new 0 0 600 300;" xml:space="preserve">
<style type="text/css">
	.st0{fill:#FFFFFF;}
</style>
<g>
	<path class="st0" d="M64.6,31.9h18.9v37.6l34.7-37.6h23.2l-35.2,36.5l36.7,49.6h-22.8L93.5,81.4l-10,10.3V118H64.6V31.9z"/>
	<path class="st0" d="M136.3,85.4v-0.2c0-18.8,13.4-34.3,32.6-34.3c22,0,32.1,17.1,32.1,35.8c0,1.5-0.1,3.2-0.2,4.9h-45.9
		c1.8,8.5,7.7,12.9,16.1,12.9c6.3,0,10.8-2,16-6.8l10.7,9.5c-6.2,7.6-15,12.3-26.9,12.3C150.9,119.5,136.3,105.6,136.3,85.4z
		 M182.8,79.9c-1.1-8.4-6-14-13.9-14c-7.7,0-12.8,5.5-14.3,14H182.8z"/>
	<path class="st0" d="M202.4,85.4v-0.2c0-18.8,13.4-34.3,32.6-34.3c22,0,32.1,17.1,32.1,35.8c0,1.5-0.1,3.2-0.2,4.9H221
		c1.8,8.5,7.7,12.9,16.1,12.9c6.3,0,10.8-2,16-6.8l10.7,9.5c-6.2,7.6-15,12.3-26.9,12.3C217.1,119.5,202.4,105.6,202.4,85.4z
		 M248.9,79.9c-1.1-8.4-6-14-13.9-14c-7.7,0-12.8,5.5-14.3,14H248.9z"/>
	<path class="st0" d="M270.4,52.1h18.7v9.5c4.6-6.2,10.8-10.7,20.5-10.7c15.4,0,30,12.1,30,34.1v0.2c0,22-14.4,34.1-30,34.1
		c-10,0-16.1-4.6-20.5-9.8v28.3h-18.7V52.1z M321,85.2v-0.2c0-10.9-7.4-18.2-16.1-18.2s-16,7.3-16,18.2v0.2c0,10.9,7.3,18.2,16,18.2
		S321,96.3,321,85.2z"/>
	<path class="st0" d="M64.6,148.7h64.9v16.9H83.4v17.5H124v16.9H83.4V218h46.7v16.9H64.6V148.7z"/>
	<path class="st0" d="M128.6,168.9h19.8l14.8,44.2l14.9-44.2h19.4l-26,66.4h-17L128.6,168.9z"/>
	<path class="st0" d="M192.2,202.2V202c0-18.9,15.3-34.3,35.8-34.3c20.4,0,35.5,15.1,35.5,34.1v0.2c0,18.9-15.3,34.3-35.8,34.3
		C207.4,236.3,192.2,221.2,192.2,202.2z M245.1,202.2V202c0-9.7-7-18.2-17.3-18.2c-10.7,0-17.1,8.2-17.1,18v0.2
		c0,9.7,7,18.2,17.3,18.2C238.7,220.2,245.1,212,245.1,202.2z"/>
	<path class="st0" d="M270.4,145h18.7v89.8h-18.7V145z"/>
	<path class="st0" d="M291.6,168.9h19.8l14.8,44.2l14.9-44.2h19.4l-26,66.4h-17L291.6,168.9z"/>
	<path class="st0" d="M362.4,145h19.7v16.6h-19.7V145z M362.9,168.9h18.7v65.9h-18.7V168.9z"/>
	<path class="st0" d="M390,168.9h18.7v9.3c4.3-5.5,9.8-10.6,19.3-10.6c14.1,0,22.4,9.3,22.4,24.5v42.7h-18.7v-36.8
		c0-8.9-4.2-13.4-11.3-13.4s-11.7,4.6-11.7,13.4v36.8H390V168.9z"/>
	<path class="st0" d="M457.7,247.9l6.4-14c6.8,3.8,13.5,6,22.3,6c12.8,0,18.8-6.1,18.8-18v-3.2c-5.5,6.6-11.6,10.7-21.5,10.7
		c-15.4,0-29.3-11.2-29.3-30.8v-0.2c0-19.7,14.1-30.8,29.3-30.8c10.2,0,16.2,4.3,21.3,9.8v-8.6h18.7v51c0,11.8-2.8,20.4-8.4,26
		c-6.1,6.1-15.6,8.9-28.4,8.9C476.2,254.8,466.1,252.3,457.7,247.9z M505.2,198.7v-0.2c0-9-7-15.3-16.1-15.3c-9.1,0-16,6.3-16,15.3
		v0.2c0,9.1,6.9,15.3,16,15.3C498.2,213.9,505.2,207.7,505.2,198.7z"/>
</g>
<g>
	<path class="st0" d="M368.3,69.8h-6.7v-2.1h15.7v2.1h-6.7v17.8h-2.2V69.8z"/>
	<path class="st0" d="M379.9,66.9h2.2v8.6c1-1.6,2.5-2.9,5-2.9c3.6,0,5.6,2.4,5.6,5.9v9.1h-2.2v-8.6c0-2.7-1.5-4.4-4.1-4.4
		c-2.5,0-4.4,1.8-4.4,4.6v8.4h-2.2V66.9z"/>
	<path class="st0" d="M395.8,80.3L395.8,80.3c0-4.3,3-7.7,7.1-7.7c4.4,0,6.9,3.5,6.9,7.8c0,0.3,0,0.5,0,0.7H398c0.3,3.2,2.6,5,5.2,5
		c2,0,3.4-0.8,4.6-2.1l1.4,1.2c-1.5,1.7-3.3,2.8-6.1,2.8C399.1,88,395.8,84.9,395.8,80.3z M407.5,79.5c-0.2-2.7-1.8-5-4.7-5
		c-2.6,0-4.5,2.1-4.8,5H407.5z"/>
	<path class="st0" d="M421.1,67.7h6.9c6.3,0,10.6,4.3,10.6,9.9v0.1c0,5.6-4.3,10-10.6,10h-6.9V67.7z M423.3,69.8v15.8h4.7
		c5,0,8.3-3.4,8.3-7.8v-0.1c0-4.4-3.2-7.9-8.3-7.9H423.3z"/>
	<path class="st0" d="M442.2,72.9h2.2v3.8c1.1-2.4,3.2-4.2,6-4.1V75h-0.2c-3.2,0-5.8,2.3-5.8,6.7v5.9h-2.2V72.9z"/>
	<path class="st0" d="M453.1,67.3h2.5v2.4h-2.5V67.3z M453.3,72.9h2.2v14.7h-2.2V72.9z"/>
	<path class="st0" d="M458.4,72.9h2.4l5,12.2l5-12.2h2.4l-6.4,14.8h-1.9L458.4,72.9z"/>
	<path class="st0" d="M474.1,80.3L474.1,80.3c0-4.3,3-7.7,7.1-7.7c4.4,0,6.9,3.5,6.9,7.8c0,0.3,0,0.5,0,0.7h-11.7
		c0.3,3.2,2.6,5,5.2,5c2,0,3.4-0.8,4.6-2.1l1.4,1.2c-1.5,1.7-3.3,2.8-6.1,2.8C477.4,88,474.1,84.9,474.1,80.3z M485.7,79.5
		c-0.2-2.7-1.8-5-4.7-5c-2.6,0-4.5,2.1-4.8,5H485.7z"/>
	<path class="st0" d="M365.5,112.8v-8.9h-2v-1.9h2v-4.4h2.2v4.4h4.7v1.9h-4.7v8.6c0,1.8,1,2.4,2.5,2.4c0.7,0,1.4-0.1,2.1-0.5v1.9
		c-0.8,0.4-1.6,0.6-2.6,0.6C367.3,116.9,365.5,115.7,365.5,112.8z"/>
	<path class="st0" d="M374.2,109.4L374.2,109.4c0-4.2,3.2-7.7,7.7-7.7c4.4,0,7.7,3.5,7.7,7.6v0.1c0,4.2-3.3,7.7-7.7,7.7
		C377.4,117,374.2,113.5,374.2,109.4z M387.3,109.4L387.3,109.4c0-3.2-2.4-5.8-5.5-5.8c-3.2,0-5.4,2.6-5.4,5.7v0.1
		c0,3.2,2.3,5.7,5.4,5.7C385.1,115,387.3,112.5,387.3,109.4z"/>
	<path class="st0" d="M401,96.7h6.9c6.3,0,10.6,4.3,10.6,9.9v0.1c0,5.6-4.3,10-10.6,10H401V96.7z M403.2,98.8v15.8h4.7
		c5,0,8.3-3.4,8.3-7.8v-0.1c0-4.4-3.2-7.9-8.3-7.9H403.2z"/>
	<path class="st0" d="M421.2,109.3L421.2,109.3c0-4.3,3-7.7,7.1-7.7c4.4,0,6.9,3.5,6.9,7.8c0,0.3,0,0.5,0,0.7h-11.7
		c0.3,3.2,2.6,5,5.2,5c2,0,3.4-0.8,4.6-2.1l1.4,1.2c-1.5,1.7-3.3,2.8-6.1,2.8C424.5,117,421.2,113.9,421.2,109.3z M432.9,108.5
		c-0.2-2.7-1.8-5-4.7-5c-2.6,0-4.5,2.1-4.8,5H432.9z"/>
	<path class="st0" d="M436.1,101.9h2.4l5,12.2l5-12.2h2.4l-6.4,14.8h-1.9L436.1,101.9z"/>
	<path class="st0" d="M451.8,109.3L451.8,109.3c0-4.3,3-7.7,7.1-7.7c4.4,0,6.9,3.5,6.9,7.8c0,0.3,0,0.5,0,0.7H454
		c0.3,3.2,2.6,5,5.2,5c2,0,3.4-0.8,4.6-2.1l1.4,1.2c-1.5,1.7-3.3,2.8-6.1,2.8C455.1,117,451.8,113.9,451.8,109.3z M463.5,108.5
		c-0.2-2.7-1.8-5-4.7-5c-2.6,0-4.5,2.1-4.8,5H463.5z"/>
	<path class="st0" d="M469,95.9h2.2v20.8H469V95.9z"/>
	<path class="st0" d="M474.7,109.4L474.7,109.4c0-4.2,3.2-7.7,7.7-7.7c4.4,0,7.7,3.5,7.7,7.6v0.1c0,4.2-3.3,7.7-7.7,7.7
		C477.9,117,474.7,113.5,474.7,109.4z M487.8,109.4L487.8,109.4c0-3.2-2.4-5.8-5.5-5.8c-3.2,0-5.4,2.6-5.4,5.7v0.1
		c0,3.2,2.3,5.7,5.4,5.7C485.6,115,487.8,112.5,487.8,109.4z"/>
	<path class="st0" d="M493.3,101.9h2.2v3c1.2-1.8,2.9-3.3,5.6-3.3c3.5,0,7,2.8,7,7.6v0.1c0,4.8-3.5,7.7-7,7.7
		c-2.7,0-4.5-1.5-5.6-3.1v7.4h-2.2V101.9z M505.9,109.3L505.9,109.3c0-3.5-2.4-5.7-5.2-5.7c-2.7,0-5.3,2.3-5.3,5.7v0.1
		c0,3.4,2.6,5.7,5.3,5.7C503.5,115,505.9,112.9,505.9,109.3z"/>
</g>
</svg>
