<?xml version="1.0" encoding="utf-8"?>
<!-- Generator: Adobe Illustrator 24.0.0, SVG Export Plug-In . SVG Version: 6.00 Build 0)  -->
<svg version="1.1" id="Layer_1" xmlns="http://www.w3.org/2000/svg" xmlns:xlink="http://www.w3.org/1999/xlink" x="0px" y="0px"
	 viewBox="0 0 600 300" style="enable-background:new 0 0 600 300;" xml:space="preserve">
<style type="text/css">
	.st0{fill:#FFFFFF;}
</style>
<g>
	<path class="st0" d="M64.6,31.9h18.9v37.6l34.7-37.6h23.2l-35.2,36.5l36.7,49.6h-22.8L93.5,81.4l-10,10.3V118H64.6V31.9z"/>
	<path class="st0" d="M134.3,85.4v-0.2c0-18.8,13.4-34.3,32.6-34.3c22,0,32.1,17.1,32.1,35.8c0,1.5-0.1,3.2-0.2,4.9h-45.9
		c1.8,8.5,7.7,12.9,16.1,12.9c6.3,0,10.8-2,16-6.8l10.7,9.5c-6.2,7.6-15,12.3-26.9,12.3C148.9,119.5,134.3,105.6,134.3,85.4z
		 M180.8,79.9c-1.1-8.4-6-14-13.9-14c-7.7,0-12.8,5.5-14.3,14H180.8z"/>
	<path class="st0" d="M202.4,85.4v-0.2c0-18.8,13.4-34.3,32.6-34.3c22,0,32.1,17.1,32.1,35.8c0,1.5-0.1,3.2-0.2,4.9H221
		c1.8,8.5,7.7,12.9,16.1,12.9c6.3,0,10.8-2,16-6.8l10.7,9.5c-6.2,7.6-15,12.3-26.9,12.3C217.1,119.5,202.4,105.6,202.4,85.4z
		 M248.9,79.9c-1.1-8.4-6-14-13.9-14c-7.7,0-12.8,5.5-14.3,14H248.9z"/>
	<path class="st0" d="M270.4,52.1h18.7v9.5c4.6-6.2,10.8-10.7,20.5-10.7c15.4,0,30,12.1,30,34.1v0.2c0,22-14.4,34.1-30,34.1
		c-10,0-16.1-4.6-20.5-9.8v28.3h-18.7V52.1z M321,85.2V85c0-10.9-7.4-18.2-16.1-18.2s-16,7.3-16,18.2v0.2c0,10.9,7.3,18.2,16,18.2
		S321,96.3,321,85.2z"/>
	<path class="st0" d="M64.6,148.7h64.9v16.9H83.4v17.5H124V200H83.4v18h46.7v16.9H64.6V148.7z"/>
	<path class="st0" d="M129.6,168.9h19.8l14.8,44.2l14.9-44.2h19.4l-26,66.4h-17L129.6,168.9z"/>
	<path class="st0" d="M194.2,202.2V202c0-18.9,15.3-34.3,35.8-34.3c20.4,0,35.5,15.1,35.5,34.1v0.2c0,18.9-15.3,34.3-35.8,34.3
		C209.4,236.3,194.2,221.2,194.2,202.2z M247.1,202.2V202c0-9.7-7-18.2-17.3-18.2c-10.7,0-17.1,8.2-17.1,18v0.2
		c0,9.7,7,18.2,17.3,18.2C240.7,220.2,247.1,212,247.1,202.2z"/>
	<path class="st0" d="M270.4,145h18.7v89.8h-18.7V145z"/>
	<path class="st0" d="M292.6,168.9h19.8l14.8,44.2l14.9-44.2h19.4l-26,66.4h-17L292.6,168.9z"/>
	<path class="st0" d="M364.4,145h19.7v16.6h-19.7V145z M364.9,168.9h18.7v65.9h-18.7V168.9z"/>
	<path class="st0" d="M390,168.9h18.7v9.3c4.3-5.5,9.8-10.6,19.3-10.6c14.1,0,22.4,9.3,22.4,24.5v42.7h-18.7V198
		c0-8.9-4.2-13.4-11.3-13.4s-11.7,4.6-11.7,13.4v36.8H390V168.9z"/>
	<path class="st0" d="M457.7,247.9l6.4-14c6.8,3.8,13.5,6,22.3,6c12.8,0,18.8-6.1,18.8-18v-3.2c-5.5,6.6-11.6,10.7-21.5,10.7
		c-15.4,0-29.3-11.2-29.3-30.8v-0.2c0-19.7,14.1-30.8,29.3-30.8c10.2,0,16.2,4.3,21.3,9.8v-8.6h18.7v51c0,11.8-2.8,20.4-8.4,26
		c-6.1,6.1-15.6,8.9-28.4,8.9C476.2,254.8,466.1,252.3,457.7,247.9z M505.2,198.7v-0.2c0-9-7-15.3-16.1-15.3s-16,6.3-16,15.3v0.2
		c0,9.1,6.9,15.3,16,15.3C498.2,213.9,505.2,207.7,505.2,198.7z"/>
</g>
</svg>
