<?xml version="1.0" encoding="utf-8"?>
<!-- Generator: Adobe Illustrator 24.0.0, SVG Export Plug-In . SVG Version: 6.00 Build 0)  -->
<svg version="1.1" id="Layer_1" xmlns="http://www.w3.org/2000/svg" xmlns:xlink="http://www.w3.org/1999/xlink" x="0px" y="0px"
	 viewBox="0 0 720 108" style="enable-background:new 0 0 720 108;" xml:space="preserve">
<style type="text/css">
	.st0{fill:#FFFFFF;}
</style>
<title>logos_artboards</title>
<g>
	<g>
		<path class="st0" d="M1.2,5.3h33.4c19.5,0,31.3,11.6,31.3,28.3v0.2c0,18.9-14.7,28.7-33.1,28.7H19.2v24.5h-18V5.3z M33.5,46.6
			c9,0,14.3-5.4,14.3-12.4V34c0-8.1-5.6-12.4-14.6-12.4H19.2v25H33.5z"/>
		<path class="st0" d="M116.1,24.5h18.5l-24.1,64.1c-4.8,12.7-9.9,17.5-20.6,17.5c-6.4,0-11.2-1.6-15.8-4.3l6-12.9
			c2.3,1.4,5.3,2.5,7.6,2.5c3,0,4.7-0.9,6.2-4.1L69.3,24.5h18.8l14.3,42.6L116.1,24.5z"/>
		<path class="st0" d="M135.1,46.5v-0.2c0-23.2,17.5-42.3,42.6-42.3c15.4,0,24.6,5.1,32.2,12.6l-11.4,13.2
			c-6.3-5.7-12.7-9.2-20.9-9.2c-13.8,0-23.7,11.4-23.7,25.5v0.2c0,14,9.7,25.7,23.7,25.7c9.3,0,15.1-3.7,21.5-9.6l11.4,11.6
			c-8.4,9-17.8,14.6-33.5,14.6C153,88.5,135.1,69.9,135.1,46.5z"/>
		<path class="st0" d="M216.5,1.8h17.8v31.5c4.1-5.3,9.3-10,18.3-10c13.4,0,21.3,8.9,21.3,23.2v40.5h-17.8V52.2
			c0-8.4-4-12.7-10.7-12.7c-6.8,0-11.1,4.3-11.1,12.7v34.9h-17.8V1.8z"/>
		<path class="st0" d="M279.5,69.1v-0.2c0-13.7,10.4-20,25.2-20c6.3,0,10.9,1.1,15.3,2.6v-1.1c0-7.4-4.6-11.4-13.4-11.4
			c-6.8,0-11.6,1.3-17.3,3.4l-4.4-13.6c6.9-3,13.7-5,24.3-5c9.7,0,16.7,2.6,21.1,7c4.7,4.7,6.8,11.6,6.8,20v36.3h-17.2v-6.8
			c-4.3,4.8-10.3,7.9-18.9,7.9C289.2,88.3,279.5,81.5,279.5,69.1z M320.2,65v-3.2c-3-1.4-7-2.3-11.3-2.3c-7.6,0-12.3,3-12.3,8.6v0.2
			c0,4.8,4,7.6,9.7,7.6C314.6,76,320.2,71.5,320.2,65z"/>
		<path class="st0" d="M346.1,24.5h17.8v12.6c3.6-8.6,9.5-14.3,20-13.8v18.6h-0.9c-11.8,0-19,7.1-19,22.1v23.1h-17.8V24.5z"/>
		<path class="st0" d="M391.3,24.5h17.8v8.9c4.1-5.3,9.5-10,18.5-10c8.2,0,14.4,3.6,17.6,9.9c5.5-6.4,12-9.9,20.6-9.9
			c13.2,0,21.1,7.9,21.1,23v40.8h-17.8V52.2c0-8.4-3.7-12.7-10.4-12.7c-6.7,0-10.7,4.3-10.7,12.7v34.9h-17.8V52.2
			c0-8.4-3.7-12.7-10.4-12.7c-6.7,0-10.7,4.3-10.7,12.7v34.9h-17.8V24.5z"/>
	</g>
	<g>
		<path class="st0" d="M523,5.9h60.5v15.9h-43v16.5h37.8v15.9h-37.8v17.1H584v15.9H523V5.9z"/>
		<path class="st0" d="M589.2,56.1v-0.2c0-20.8,13.4-32.1,28-32.1c9.3,0,15,4.3,19.1,9.3V2.4h17.4v84.7h-17.4v-8.9
			c-4.2,5.8-10.1,10.1-19.1,10.1C602.8,88.3,589.2,76.9,589.2,56.1z M636.5,56.1v-0.2c0-10.3-6.8-17.2-14.9-17.2s-15,6.7-15,17.2
			v0.2c0,10.3,6.9,17.2,15,17.2S636.5,66.5,636.5,56.1z"/>
		<path class="st0" d="M662.5,65.2V24.9h17.4v34.7c0,8.4,3.9,12.6,10.5,12.6c6.6,0,10.9-4.3,10.9-12.6V24.9h17.4v62.2h-17.4v-8.8
			c-4,5.2-9.2,10-18,10C670.2,88.3,662.5,79.5,662.5,65.2z"/>
	</g>
</g>
</svg>
